# xmcd CD database file
#
# Track frame offsets:
#	187
#	17140
#	36312
#	56740
#	73505
#	92275
#	111280
#	128020
#	142565
#	162137
#	178322
#	197422
#	216815
#	233927
#	254022
#
# Disc length: 3652 seconds
#
# Revision: 2
# Processed by: cddbd v1.5.1PL2 Copyright (c) Steve Scherf et al.
# Submitted via: CDex 1.60beta1
#
DISCID=ce0e420f
DTITLE=2 unlimited - Get Ready! (Japan)
DYEAR=1992
DGENRE=Rave
TTITLE0=Get Ready For This
TTITLE1=Twilight Zone
TTITLE2=The Magic Friend
TTITLE3=Contrast
TTITLE4=Rougher Than The Average
TTITLE5=Workaholic
TTITLE6=Delight
TTITLE7=Get Ready For This
TTITLE8=Twilight Zone
TTITLE9=The Magic Friend
TTITLE10=Rougher Than The Average
TTITLE11=Workaholic
TTITLE12=Delight
TTITLE13=Desire
TTITLE14=Eternally Yours
EXTD=YEAR: 1992
EXTT0=
EXTT1=
EXTT2=
EXTT3=
EXTT4=
EXTT5=
EXTT6=
EXTT7=
EXTT8=
EXTT9=
EXTT10=
EXTT11=
EXTT12=
EXTT13=
EXTT14=
PLAYORDER=
